<svg xmlns="http://www.w3.org/2000/svg" xmlns:xlink="http://www.w3.org/1999/xlink" width="100" zoomAndPan="magnify" viewBox="0 0 75 74.999997" height="100" preserveAspectRatio="xMidYMid meet" version="1.0"><defs><g/><clipPath id="id1"><path d="M 49.40625 2.359375 L 69.484375 2.359375 L 69.484375 25.609375 L 49.40625 25.609375 Z M 49.40625 2.359375 " clip-rule="nonzero"/></clipPath><clipPath id="id2"><path d="M 26 17 L 50 17 L 50 40 L 26 40 Z M 26 17 " clip-rule="nonzero"/></clipPath><clipPath id="id3"><path d="M 56.699219 30.980469 L 40.261719 47.417969 L 25.941406 33.101562 L 42.382812 16.660156 Z M 56.699219 30.980469 " clip-rule="nonzero"/></clipPath><clipPath id="id4"><path d="M 56.824219 31.101562 L 40.382812 47.542969 L 26.066406 33.222656 L 42.503906 16.785156 Z M 56.824219 31.101562 " clip-rule="nonzero"/></clipPath><clipPath id="id5"><path d="M 52 27 L 75 27 L 75 50 L 52 50 Z M 52 27 " clip-rule="nonzero"/></clipPath><clipPath id="id6"><path d="M 60.761719 57.179688 L 44.320312 40.738281 L 58.640625 26.417969 L 75.078125 42.859375 Z M 60.761719 57.179688 " clip-rule="nonzero"/></clipPath><clipPath id="id7"><path d="M 60.636719 57.300781 L 44.195312 40.859375 L 58.515625 26.542969 L 74.957031 42.980469 Z M 60.636719 57.300781 " clip-rule="nonzero"/></clipPath></defs><g clip-path="url(#id1)"><path fill="#f7dc69" d="M 51.214844 25.40625 L 69.074219 14.820312 L 69.074219 14.8125 C 69.421875 14.613281 69.65625 14.246094 69.65625 13.820312 C 69.65625 13.433594 69.46875 13.097656 69.179688 12.886719 L 69.167969 12.878906 C 69.113281 12.839844 69.054688 12.808594 68.992188 12.777344 L 51.207031 2.554688 C 51.023438 2.429688 50.800781 2.359375 50.5625 2.359375 C 49.925781 2.359375 49.40625 2.875 49.40625 3.511719 L 49.40625 24.453125 C 49.40625 25.089844 49.925781 25.605469 50.5625 25.605469 C 50.804688 25.605469 51.027344 25.535156 51.214844 25.40625 Z M 51.214844 25.40625 " fill-opacity="1" fill-rule="nonzero"/></g><g clip-path="url(#id2)"><g clip-path="url(#id3)"><g clip-path="url(#id4)"><path fill="#7ce6d7" d="M 27.484375 34.359375 L 47.601562 39.503906 L 47.605469 39.5 C 47.992188 39.601562 48.417969 39.507812 48.71875 39.207031 C 48.992188 38.933594 49.097656 38.5625 49.039062 38.210938 L 49.042969 38.207031 L 49.039062 38.195312 C 49.027344 38.128906 49.007812 38.0625 48.988281 38 L 43.640625 18.195312 C 43.597656 17.976562 43.492188 17.769531 43.324219 17.601562 C 42.871094 17.152344 42.140625 17.148438 41.6875 17.601562 L 26.882812 32.40625 C 26.429688 32.859375 26.433594 33.589844 26.882812 34.042969 C 27.054688 34.210938 27.265625 34.316406 27.484375 34.359375 Z M 27.484375 34.359375 " fill-opacity="1" fill-rule="nonzero"/></g></g></g><g clip-path="url(#id5)"><g clip-path="url(#id6)"><g clip-path="url(#id7)"><path fill="#e684c3" d="M 57.378906 27.960938 L 52.238281 48.078125 L 52.242188 48.082031 C 52.136719 48.46875 52.230469 48.894531 52.535156 49.199219 C 52.804688 49.46875 53.175781 49.574219 53.527344 49.519531 L 53.53125 49.519531 L 53.542969 49.515625 C 53.609375 49.503906 53.675781 49.488281 53.738281 49.464844 L 73.542969 44.117188 C 73.761719 44.074219 73.96875 43.96875 74.136719 43.800781 C 74.589844 43.347656 74.589844 42.617188 74.140625 42.164062 L 59.332031 27.359375 C 58.882812 26.90625 58.148438 26.910156 57.699219 27.359375 C 57.527344 27.53125 57.421875 27.742188 57.378906 27.960938 Z M 57.378906 27.960938 " fill-opacity="1" fill-rule="nonzero"/></g></g></g><g fill="#222222" fill-opacity="1"><g transform="translate(0.031146, 66.033295)"><g><path d="M 12.359375 -18.734375 L 12.359375 0 L 7.671875 0 L 7.671875 -18.734375 L 0.578125 -18.734375 L 0.578125 -23.015625 L 19.4375 -23.015625 L 19.4375 -18.734375 Z M 12.359375 -18.734375 "/></g></g></g><g fill="#222222" fill-opacity="1"><g transform="translate(20.055323, 66.033295)"><g><path d="M 20.703125 0 L 20.703125 -15.46875 L 15.1875 -5.859375 L 12.46875 -5.859375 L 7.015625 -15.46875 L 7.015625 0 L 2.5 0 L 2.5 -23.015625 L 7.90625 -23.015625 L 13.90625 -12.09375 L 19.953125 -23.015625 L 25.25 -23.015625 L 25.25 0 Z M 20.703125 0 "/></g></g></g></svg>