<svg xmlns="http://www.w3.org/2000/svg" xmlns:xlink="http://www.w3.org/1999/xlink" width="100" zoomAndPan="magnify" viewBox="0 0 75 74.999997" height="100" preserveAspectRatio="xMidYMid meet" version="1.0"><defs><g/><clipPath id="id1"><path d="M 49.082031 1.351562 L 68.582031 1.351562 L 68.582031 24.601562 L 49.082031 24.601562 Z M 49.082031 1.351562 " clip-rule="nonzero"/></clipPath><clipPath id="id2"><path d="M 25 15 L 49 15 L 49 38 L 25 38 Z M 25 15 " clip-rule="nonzero"/></clipPath><clipPath id="id3"><path d="M 56.097656 29.308594 L 39.65625 45.75 L 25.871094 31.960938 L 42.308594 15.519531 Z M 56.097656 29.308594 " clip-rule="nonzero"/></clipPath><clipPath id="id4"><path d="M 56.21875 29.429688 L 39.777344 45.867188 L 25.460938 31.550781 L 41.898438 15.109375 Z M 56.21875 29.429688 " clip-rule="nonzero"/></clipPath><clipPath id="id5"><path d="M 51 24 L 74 24 L 74 48 L 51 48 Z M 51 24 " clip-rule="nonzero"/></clipPath><clipPath id="id6"><path d="M 60.066406 54.90625 L 43.625 38.464844 L 57.414062 24.675781 L 73.855469 41.117188 Z M 60.066406 54.90625 " clip-rule="nonzero"/></clipPath><clipPath id="id7"><path d="M 59.945312 55.023438 L 43.503906 38.585938 L 57.824219 24.265625 L 74.261719 40.707031 Z M 59.945312 55.023438 " clip-rule="nonzero"/></clipPath></defs><g clip-path="url(#id1)"><path fill="#f7dc69" d="M 50.308594 24.394531 L 68.167969 13.8125 L 68.167969 13.804688 C 68.515625 13.605469 68.75 13.238281 68.75 12.8125 C 68.75 12.429688 68.5625 12.089844 68.273438 11.882812 L 68.273438 11.878906 L 68.261719 11.871094 C 68.207031 11.832031 68.148438 11.800781 68.085938 11.769531 L 50.300781 1.554688 C 50.117188 1.429688 49.894531 1.359375 49.660156 1.359375 C 49.019531 1.359375 48.5 1.875 48.5 2.511719 L 48.5 23.4375 C 48.5 24.074219 49.019531 24.59375 49.660156 24.59375 C 49.898438 24.59375 50.125 24.519531 50.308594 24.394531 Z M 50.308594 24.394531 " fill-opacity="1" fill-rule="nonzero"/></g><g clip-path="url(#id2)"><g clip-path="url(#id3)"><g clip-path="url(#id4)"><path fill="#7ce6d7" d="M 26.882812 32.679688 L 46.996094 37.828125 L 47 37.824219 C 47.386719 37.929688 47.8125 37.835938 48.113281 37.53125 C 48.386719 37.261719 48.488281 36.890625 48.433594 36.539062 L 48.4375 36.535156 L 48.433594 36.523438 C 48.421875 36.457031 48.402344 36.390625 48.378906 36.328125 L 43.027344 16.527344 C 42.984375 16.308594 42.878906 16.101562 42.710938 15.933594 C 42.261719 15.480469 41.527344 15.480469 41.078125 15.929688 L 26.28125 30.730469 C 25.832031 31.179688 25.832031 31.910156 26.285156 32.363281 C 26.453125 32.53125 26.664062 32.640625 26.882812 32.679688 Z M 26.882812 32.679688 " fill-opacity="1" fill-rule="nonzero"/></g></g></g><g clip-path="url(#id5)"><g clip-path="url(#id6)"><g clip-path="url(#id7)"><path fill="#e684c3" d="M 56.691406 25.691406 L 51.546875 45.800781 L 51.546875 45.804688 C 51.445312 46.191406 51.539062 46.621094 51.839844 46.921875 C 52.113281 47.191406 52.484375 47.296875 52.835938 47.242188 L 52.851562 47.238281 C 52.917969 47.226562 52.984375 47.210938 53.046875 47.1875 L 72.847656 41.835938 C 73.0625 41.792969 73.269531 41.6875 73.441406 41.519531 C 73.890625 41.066406 73.894531 40.335938 73.441406 39.882812 L 58.644531 25.085938 C 58.195312 24.636719 57.460938 24.636719 57.011719 25.089844 C 56.839844 25.261719 56.734375 25.472656 56.691406 25.691406 Z M 56.691406 25.691406 " fill-opacity="1" fill-rule="nonzero"/></g></g></g><g fill="#222222" fill-opacity="1"><g transform="translate(0.736647, 63.554379)"><g><path d="M 12.0625 -18.296875 L 12.0625 0 L 7.484375 0 L 7.484375 -18.296875 L 0.5625 -18.296875 L 0.5625 -22.484375 L 18.984375 -22.484375 L 18.984375 -18.296875 Z M 12.0625 -18.296875 "/></g></g></g><g fill="#222222" fill-opacity="1"><g transform="translate(20.296694, 63.554379)"><g><path d="M 20.21875 0 L 20.21875 -15.109375 L 14.828125 -5.71875 L 12.1875 -5.71875 L 6.859375 -15.109375 L 6.859375 0 L 2.4375 0 L 2.4375 -22.484375 L 7.71875 -22.484375 L 13.578125 -11.8125 L 19.484375 -22.484375 L 24.65625 -22.484375 L 24.65625 0 Z M 20.21875 0 "/></g></g></g><g fill="#a8a8a8" fill-opacity="1"><g transform="translate(0.854698, 72.266265)"><g><path d="M 0.875 -3.0625 L 0.875 -1.78125 L 2.796875 -1.78125 L 2.796875 -1.390625 L 0.875 -1.390625 L 0.875 0 L 0.40625 0 L 0.40625 -3.4375 L 2.859375 -3.4375 L 2.859375 -3.0625 Z M 0.875 -3.0625 "/></g></g></g><g fill="#a8a8a8" fill-opacity="1"><g transform="translate(3.911503, 72.266265)"><g><path d="M 0.34375 0 L 0.34375 -2.03125 C 0.34375 -2.21875 0.335938 -2.421875 0.328125 -2.640625 L 0.75 -2.640625 C 0.757812 -2.335938 0.765625 -2.160156 0.765625 -2.109375 L 0.78125 -2.109375 C 0.84375 -2.328125 0.921875 -2.476562 1.015625 -2.5625 C 1.109375 -2.644531 1.238281 -2.6875 1.40625 -2.6875 C 1.457031 -2.6875 1.515625 -2.679688 1.578125 -2.671875 L 1.578125 -2.265625 C 1.523438 -2.273438 1.445312 -2.28125 1.34375 -2.28125 C 1.164062 -2.28125 1.023438 -2.203125 0.921875 -2.046875 C 0.828125 -1.890625 0.78125 -1.664062 0.78125 -1.375 L 0.78125 0 Z M 0.34375 0 "/></g></g></g><g fill="#a8a8a8" fill-opacity="1"><g transform="translate(5.577961, 72.266265)"><g><path d="M 2.578125 -1.328125 C 2.578125 -0.859375 2.472656 -0.507812 2.265625 -0.28125 C 2.054688 -0.0625 1.757812 0.046875 1.375 0.046875 C 0.988281 0.046875 0.695312 -0.0664062 0.5 -0.296875 C 0.300781 -0.535156 0.203125 -0.878906 0.203125 -1.328125 C 0.203125 -2.234375 0.597656 -2.6875 1.390625 -2.6875 C 1.796875 -2.6875 2.09375 -2.578125 2.28125 -2.359375 C 2.476562 -2.140625 2.578125 -1.796875 2.578125 -1.328125 Z M 2.109375 -1.328125 C 2.109375 -1.691406 2.050781 -1.953125 1.9375 -2.109375 C 1.832031 -2.273438 1.65625 -2.359375 1.40625 -2.359375 C 1.144531 -2.359375 0.957031 -2.273438 0.84375 -2.109375 C 0.726562 -1.941406 0.671875 -1.679688 0.671875 -1.328125 C 0.671875 -0.972656 0.726562 -0.707031 0.84375 -0.53125 C 0.957031 -0.363281 1.132812 -0.28125 1.375 -0.28125 C 1.632812 -0.28125 1.820312 -0.363281 1.9375 -0.53125 C 2.050781 -0.695312 2.109375 -0.960938 2.109375 -1.328125 Z M 2.109375 -1.328125 "/></g></g></g><g fill="#a8a8a8" fill-opacity="1"><g transform="translate(8.361095, 72.266265)"><g><path d="M 2.015625 0 L 2.015625 -1.671875 C 2.015625 -1.847656 1.992188 -1.984375 1.953125 -2.078125 C 1.921875 -2.171875 1.867188 -2.238281 1.796875 -2.28125 C 1.722656 -2.320312 1.613281 -2.34375 1.46875 -2.34375 C 1.257812 -2.34375 1.09375 -2.269531 0.96875 -2.125 C 0.84375 -1.988281 0.78125 -1.789062 0.78125 -1.53125 L 0.78125 0 L 0.34375 0 L 0.34375 -2.078125 C 0.34375 -2.390625 0.335938 -2.578125 0.328125 -2.640625 L 0.75 -2.640625 C 0.75 -2.628906 0.75 -2.601562 0.75 -2.5625 C 0.75 -2.53125 0.75 -2.492188 0.75 -2.453125 C 0.757812 -2.410156 0.765625 -2.320312 0.765625 -2.1875 L 0.78125 -2.1875 C 0.875 -2.375 0.988281 -2.503906 1.125 -2.578125 C 1.257812 -2.648438 1.425781 -2.6875 1.625 -2.6875 C 1.90625 -2.6875 2.113281 -2.613281 2.25 -2.46875 C 2.382812 -2.332031 2.453125 -2.097656 2.453125 -1.765625 L 2.453125 0 Z M 2.015625 0 "/></g></g></g><g fill="#a8a8a8" fill-opacity="1"><g transform="translate(11.14423, 72.266265)"><g><path d="M 1.359375 -0.015625 C 1.210938 0.0234375 1.0625 0.046875 0.90625 0.046875 C 0.550781 0.046875 0.375 -0.15625 0.375 -0.5625 L 0.375 -2.328125 L 0.078125 -2.328125 L 0.078125 -2.640625 L 0.390625 -2.640625 L 0.53125 -3.234375 L 0.828125 -3.234375 L 0.828125 -2.640625 L 1.3125 -2.640625 L 1.3125 -2.328125 L 0.828125 -2.328125 L 0.828125 -0.65625 C 0.828125 -0.53125 0.84375 -0.441406 0.875 -0.390625 C 0.914062 -0.335938 0.988281 -0.3125 1.09375 -0.3125 C 1.15625 -0.3125 1.242188 -0.320312 1.359375 -0.34375 Z M 1.359375 -0.015625 "/></g></g></g><g fill="#a8a8a8" fill-opacity="1"><g transform="translate(12.534577, 72.266265)"><g><path d="M 0.21875 -1.140625 L 0.21875 -1.53125 L 1.4375 -1.53125 L 1.4375 -1.140625 Z M 0.21875 -1.140625 "/></g></g></g><g fill="#a8a8a8" fill-opacity="1"><g transform="translate(14.201035, 72.266265)"><g><path d="M 0.671875 -1.234375 C 0.671875 -0.929688 0.734375 -0.695312 0.859375 -0.53125 C 0.984375 -0.363281 1.164062 -0.28125 1.40625 -0.28125 C 1.601562 -0.28125 1.757812 -0.316406 1.875 -0.390625 C 1.988281 -0.472656 2.066406 -0.570312 2.109375 -0.6875 L 2.484375 -0.578125 C 2.328125 -0.160156 1.96875 0.046875 1.40625 0.046875 C 1.019531 0.046875 0.722656 -0.0664062 0.515625 -0.296875 C 0.316406 -0.535156 0.21875 -0.882812 0.21875 -1.34375 C 0.21875 -1.78125 0.316406 -2.113281 0.515625 -2.34375 C 0.722656 -2.570312 1.015625 -2.6875 1.390625 -2.6875 C 2.171875 -2.6875 2.5625 -2.21875 2.5625 -1.28125 L 2.5625 -1.234375 Z M 2.109375 -1.5625 C 2.078125 -1.84375 2.003906 -2.046875 1.890625 -2.171875 C 1.773438 -2.296875 1.609375 -2.359375 1.390625 -2.359375 C 1.171875 -2.359375 1 -2.285156 0.875 -2.140625 C 0.75 -2.003906 0.679688 -1.8125 0.671875 -1.5625 Z M 2.109375 -1.5625 "/></g></g></g><g fill="#a8a8a8" fill-opacity="1"><g transform="translate(16.98417, 72.266265)"><g><path d="M 2.015625 0 L 2.015625 -1.671875 C 2.015625 -1.847656 1.992188 -1.984375 1.953125 -2.078125 C 1.921875 -2.171875 1.867188 -2.238281 1.796875 -2.28125 C 1.722656 -2.320312 1.613281 -2.34375 1.46875 -2.34375 C 1.257812 -2.34375 1.09375 -2.269531 0.96875 -2.125 C 0.84375 -1.988281 0.78125 -1.789062 0.78125 -1.53125 L 0.78125 0 L 0.34375 0 L 0.34375 -2.078125 C 0.34375 -2.390625 0.335938 -2.578125 0.328125 -2.640625 L 0.75 -2.640625 C 0.75 -2.628906 0.75 -2.601562 0.75 -2.5625 C 0.75 -2.53125 0.75 -2.492188 0.75 -2.453125 C 0.757812 -2.410156 0.765625 -2.320312 0.765625 -2.1875 L 0.78125 -2.1875 C 0.875 -2.375 0.988281 -2.503906 1.125 -2.578125 C 1.257812 -2.648438 1.425781 -2.6875 1.625 -2.6875 C 1.90625 -2.6875 2.113281 -2.613281 2.25 -2.46875 C 2.382812 -2.332031 2.453125 -2.097656 2.453125 -1.765625 L 2.453125 0 Z M 2.015625 0 "/></g></g></g><g fill="#a8a8a8" fill-opacity="1"><g transform="translate(19.767304, 72.266265)"><g><path d="M 2 -0.421875 C 1.914062 -0.253906 1.804688 -0.132812 1.671875 -0.0625 C 1.546875 0.0078125 1.382812 0.046875 1.1875 0.046875 C 0.851562 0.046875 0.601562 -0.0625 0.4375 -0.28125 C 0.28125 -0.507812 0.203125 -0.851562 0.203125 -1.3125 C 0.203125 -2.226562 0.53125 -2.6875 1.1875 -2.6875 C 1.382812 -2.6875 1.546875 -2.648438 1.671875 -2.578125 C 1.804688 -2.503906 1.914062 -2.390625 2 -2.234375 L 2.015625 -2.234375 L 2 -2.53125 L 2 -3.625 L 2.4375 -3.625 L 2.4375 -0.546875 C 2.4375 -0.265625 2.441406 -0.0820312 2.453125 0 L 2.03125 0 C 2.03125 -0.03125 2.023438 -0.09375 2.015625 -0.1875 C 2.015625 -0.28125 2.015625 -0.359375 2.015625 -0.421875 Z M 0.671875 -1.328125 C 0.671875 -0.953125 0.71875 -0.6875 0.8125 -0.53125 C 0.914062 -0.375 1.078125 -0.296875 1.296875 -0.296875 C 1.546875 -0.296875 1.722656 -0.378906 1.828125 -0.546875 C 1.941406 -0.722656 2 -0.992188 2 -1.359375 C 2 -1.703125 1.941406 -1.953125 1.828125 -2.109375 C 1.722656 -2.273438 1.546875 -2.359375 1.296875 -2.359375 C 1.078125 -2.359375 0.914062 -2.273438 0.8125 -2.109375 C 0.71875 -1.953125 0.671875 -1.691406 0.671875 -1.328125 Z M 0.671875 -1.328125 "/></g></g></g><g fill="#a8a8a8" fill-opacity="1"><g transform="translate(22.550439, 72.266265)"><g/></g></g><g fill="#a8a8a8" fill-opacity="1"><g transform="translate(23.940786, 72.266265)"><g><path d="M 3.375 -1.75 C 3.375 -1.394531 3.300781 -1.082031 3.15625 -0.8125 C 3.019531 -0.550781 2.820312 -0.347656 2.5625 -0.203125 C 2.3125 -0.0664062 2.023438 0 1.703125 0 L 0.40625 0 L 0.40625 -3.4375 L 1.546875 -3.4375 C 2.128906 -3.4375 2.578125 -3.289062 2.890625 -3 C 3.210938 -2.707031 3.375 -2.289062 3.375 -1.75 Z M 2.90625 -1.75 C 2.90625 -2.175781 2.785156 -2.5 2.546875 -2.71875 C 2.316406 -2.945312 1.976562 -3.0625 1.53125 -3.0625 L 0.875 -3.0625 L 0.875 -0.375 L 1.640625 -0.375 C 1.890625 -0.375 2.109375 -0.425781 2.296875 -0.53125 C 2.492188 -0.644531 2.644531 -0.804688 2.75 -1.015625 C 2.851562 -1.222656 2.90625 -1.46875 2.90625 -1.75 Z M 2.90625 -1.75 "/></g></g></g><g fill="#a8a8a8" fill-opacity="1"><g transform="translate(27.554706, 72.266265)"><g><path d="M 0.671875 -1.234375 C 0.671875 -0.929688 0.734375 -0.695312 0.859375 -0.53125 C 0.984375 -0.363281 1.164062 -0.28125 1.40625 -0.28125 C 1.601562 -0.28125 1.757812 -0.316406 1.875 -0.390625 C 1.988281 -0.472656 2.066406 -0.570312 2.109375 -0.6875 L 2.484375 -0.578125 C 2.328125 -0.160156 1.96875 0.046875 1.40625 0.046875 C 1.019531 0.046875 0.722656 -0.0664062 0.515625 -0.296875 C 0.316406 -0.535156 0.21875 -0.882812 0.21875 -1.34375 C 0.21875 -1.78125 0.316406 -2.113281 0.515625 -2.34375 C 0.722656 -2.570312 1.015625 -2.6875 1.390625 -2.6875 C 2.171875 -2.6875 2.5625 -2.21875 2.5625 -1.28125 L 2.5625 -1.234375 Z M 2.109375 -1.5625 C 2.078125 -1.84375 2.003906 -2.046875 1.890625 -2.171875 C 1.773438 -2.296875 1.609375 -2.359375 1.390625 -2.359375 C 1.171875 -2.359375 1 -2.285156 0.875 -2.140625 C 0.75 -2.003906 0.679688 -1.8125 0.671875 -1.5625 Z M 2.109375 -1.5625 "/></g></g></g><g fill="#a8a8a8" fill-opacity="1"><g transform="translate(30.337841, 72.266265)"><g><path d="M 1.5 0 L 0.984375 0 L 0.015625 -2.640625 L 0.484375 -2.640625 L 1.0625 -0.921875 C 1.082031 -0.859375 1.140625 -0.664062 1.234375 -0.34375 L 1.328125 -0.625 L 1.421875 -0.921875 L 2.015625 -2.640625 L 2.484375 -2.640625 Z M 1.5 0 "/></g></g></g><g fill="#a8a8a8" fill-opacity="1"><g transform="translate(32.839971, 72.266265)"><g><path d="M 0.671875 -1.234375 C 0.671875 -0.929688 0.734375 -0.695312 0.859375 -0.53125 C 0.984375 -0.363281 1.164062 -0.28125 1.40625 -0.28125 C 1.601562 -0.28125 1.757812 -0.316406 1.875 -0.390625 C 1.988281 -0.472656 2.066406 -0.570312 2.109375 -0.6875 L 2.484375 -0.578125 C 2.328125 -0.160156 1.96875 0.046875 1.40625 0.046875 C 1.019531 0.046875 0.722656 -0.0664062 0.515625 -0.296875 C 0.316406 -0.535156 0.21875 -0.882812 0.21875 -1.34375 C 0.21875 -1.78125 0.316406 -2.113281 0.515625 -2.34375 C 0.722656 -2.570312 1.015625 -2.6875 1.390625 -2.6875 C 2.171875 -2.6875 2.5625 -2.21875 2.5625 -1.28125 L 2.5625 -1.234375 Z M 2.109375 -1.5625 C 2.078125 -1.84375 2.003906 -2.046875 1.890625 -2.171875 C 1.773438 -2.296875 1.609375 -2.359375 1.390625 -2.359375 C 1.171875 -2.359375 1 -2.285156 0.875 -2.140625 C 0.75 -2.003906 0.679688 -1.8125 0.671875 -1.5625 Z M 2.109375 -1.5625 "/></g></g></g><g fill="#a8a8a8" fill-opacity="1"><g transform="translate(35.623106, 72.266265)"><g><path d="M 0.34375 0 L 0.34375 -3.625 L 0.78125 -3.625 L 0.78125 0 Z M 0.34375 0 "/></g></g></g><g fill="#a8a8a8" fill-opacity="1"><g transform="translate(36.734895, 72.266265)"><g><path d="M 2.578125 -1.328125 C 2.578125 -0.859375 2.472656 -0.507812 2.265625 -0.28125 C 2.054688 -0.0625 1.757812 0.046875 1.375 0.046875 C 0.988281 0.046875 0.695312 -0.0664062 0.5 -0.296875 C 0.300781 -0.535156 0.203125 -0.878906 0.203125 -1.328125 C 0.203125 -2.234375 0.597656 -2.6875 1.390625 -2.6875 C 1.796875 -2.6875 2.09375 -2.578125 2.28125 -2.359375 C 2.476562 -2.140625 2.578125 -1.796875 2.578125 -1.328125 Z M 2.109375 -1.328125 C 2.109375 -1.691406 2.050781 -1.953125 1.9375 -2.109375 C 1.832031 -2.273438 1.65625 -2.359375 1.40625 -2.359375 C 1.144531 -2.359375 0.957031 -2.273438 0.84375 -2.109375 C 0.726562 -1.941406 0.671875 -1.679688 0.671875 -1.328125 C 0.671875 -0.972656 0.726562 -0.707031 0.84375 -0.53125 C 0.957031 -0.363281 1.132812 -0.28125 1.375 -0.28125 C 1.632812 -0.28125 1.820312 -0.363281 1.9375 -0.53125 C 2.050781 -0.695312 2.109375 -0.960938 2.109375 -1.328125 Z M 2.109375 -1.328125 "/></g></g></g><g fill="#a8a8a8" fill-opacity="1"><g transform="translate(39.51803, 72.266265)"><g><path d="M 2.578125 -1.328125 C 2.578125 -0.410156 2.25 0.046875 1.59375 0.046875 C 1.1875 0.046875 0.914062 -0.101562 0.78125 -0.40625 L 0.765625 -0.40625 C 0.773438 -0.394531 0.78125 -0.257812 0.78125 0 L 0.78125 1.03125 L 0.34375 1.03125 L 0.34375 -2.109375 C 0.34375 -2.378906 0.335938 -2.554688 0.328125 -2.640625 L 0.75 -2.640625 C 0.75 -2.628906 0.75 -2.601562 0.75 -2.5625 C 0.757812 -2.53125 0.765625 -2.472656 0.765625 -2.390625 C 0.765625 -2.304688 0.765625 -2.25 0.765625 -2.21875 L 0.78125 -2.21875 C 0.863281 -2.382812 0.96875 -2.503906 1.09375 -2.578125 C 1.21875 -2.648438 1.382812 -2.6875 1.59375 -2.6875 C 1.925781 -2.6875 2.171875 -2.578125 2.328125 -2.359375 C 2.492188 -2.140625 2.578125 -1.796875 2.578125 -1.328125 Z M 2.109375 -1.328125 C 2.109375 -1.691406 2.054688 -1.953125 1.953125 -2.109375 C 1.859375 -2.265625 1.703125 -2.34375 1.484375 -2.34375 C 1.304688 -2.34375 1.171875 -2.304688 1.078125 -2.234375 C 0.984375 -2.160156 0.910156 -2.046875 0.859375 -1.890625 C 0.804688 -1.734375 0.78125 -1.535156 0.78125 -1.296875 C 0.78125 -0.941406 0.832031 -0.679688 0.9375 -0.515625 C 1.050781 -0.359375 1.234375 -0.28125 1.484375 -0.28125 C 1.703125 -0.28125 1.859375 -0.359375 1.953125 -0.515625 C 2.054688 -0.671875 2.109375 -0.941406 2.109375 -1.328125 Z M 2.109375 -1.328125 "/></g></g></g><g fill="#a8a8a8" fill-opacity="1"><g transform="translate(42.301165, 72.266265)"><g><path d="M 0.671875 -1.234375 C 0.671875 -0.929688 0.734375 -0.695312 0.859375 -0.53125 C 0.984375 -0.363281 1.164062 -0.28125 1.40625 -0.28125 C 1.601562 -0.28125 1.757812 -0.316406 1.875 -0.390625 C 1.988281 -0.472656 2.066406 -0.570312 2.109375 -0.6875 L 2.484375 -0.578125 C 2.328125 -0.160156 1.96875 0.046875 1.40625 0.046875 C 1.019531 0.046875 0.722656 -0.0664062 0.515625 -0.296875 C 0.316406 -0.535156 0.21875 -0.882812 0.21875 -1.34375 C 0.21875 -1.78125 0.316406 -2.113281 0.515625 -2.34375 C 0.722656 -2.570312 1.015625 -2.6875 1.390625 -2.6875 C 2.171875 -2.6875 2.5625 -2.21875 2.5625 -1.28125 L 2.5625 -1.234375 Z M 2.109375 -1.5625 C 2.078125 -1.84375 2.003906 -2.046875 1.890625 -2.171875 C 1.773438 -2.296875 1.609375 -2.359375 1.390625 -2.359375 C 1.171875 -2.359375 1 -2.285156 0.875 -2.140625 C 0.75 -2.003906 0.679688 -1.8125 0.671875 -1.5625 Z M 2.109375 -1.5625 "/></g></g></g><g fill="#a8a8a8" fill-opacity="1"><g transform="translate(45.084299, 72.266265)"><g><path d="M 0.34375 0 L 0.34375 -2.03125 C 0.34375 -2.21875 0.335938 -2.421875 0.328125 -2.640625 L 0.75 -2.640625 C 0.757812 -2.335938 0.765625 -2.160156 0.765625 -2.109375 L 0.78125 -2.109375 C 0.84375 -2.328125 0.921875 -2.476562 1.015625 -2.5625 C 1.109375 -2.644531 1.238281 -2.6875 1.40625 -2.6875 C 1.457031 -2.6875 1.515625 -2.679688 1.578125 -2.671875 L 1.578125 -2.265625 C 1.523438 -2.273438 1.445312 -2.28125 1.34375 -2.28125 C 1.164062 -2.28125 1.023438 -2.203125 0.921875 -2.046875 C 0.828125 -1.890625 0.78125 -1.664062 0.78125 -1.375 L 0.78125 0 Z M 0.34375 0 "/></g></g></g></svg>